<svg width="32" height="32" viewBox="0 0 32 32" fill="none" xmlns="http://www.w3.org/2000/svg">
<path opacity="0.1" fill-rule="evenodd" clip-rule="evenodd" d="M0 16C0 7.16344 7.16344 0 16 0C24.8366 0 32 7.16344 32 16C32 24.8366 24.8366 32 16 32C7.16344 32 0 24.8366 0 16Z" fill="white"/>
<path fill-rule="evenodd" clip-rule="evenodd" d="M24.5332 15.9882C24.5332 16.5653 24.4745 17.1416 24.3591 17.7033C24.2465 18.2517 24.0799 18.7901 23.8615 19.3048C23.6482 19.8104 23.3836 20.2976 23.0744 20.752C22.7698 21.2035 22.419 21.627 22.0335 22.0131C21.6473 22.3976 21.2222 22.7475 20.771 23.0534C20.3151 23.3604 19.8272 23.6246 19.3213 23.8389C18.8059 24.0561 18.2662 24.2226 17.7183 24.3349C17.1558 24.4506 16.5774 24.5096 15.9995 24.5096C15.4211 24.5096 14.8428 24.4506 14.2811 24.3349C13.7323 24.2226 13.1927 24.0561 12.6777 23.8389C12.1718 23.6246 11.6834 23.3604 11.2276 23.0534C10.7763 22.7475 10.3513 22.3976 9.96587 22.0131C9.58003 21.627 9.22915 21.2035 8.92414 20.752C8.61663 20.2976 8.35159 19.8104 8.13743 19.3048C7.91906 18.7901 7.75199 18.2517 7.63907 17.7033C7.5249 17.1416 7.46655 16.5653 7.46655 15.9882C7.46655 15.4107 7.52487 14.8331 7.6391 14.2726C7.75203 13.7242 7.91909 13.185 8.13747 12.6711C8.35163 12.1652 8.61666 11.6775 8.92418 11.2231C9.22919 10.7713 9.58006 10.3485 9.9659 9.96195C10.3513 9.57746 10.7764 9.2284 11.2276 8.923C11.6835 8.61466 12.1719 8.35047 12.6777 8.13575C13.1927 7.9181 13.7323 7.75127 14.2811 7.63977C14.8428 7.52494 15.4212 7.46667 15.9995 7.46667C16.5775 7.46667 17.1558 7.52494 17.7184 7.63977C18.2663 7.7513 18.8059 7.91813 19.3214 8.13575C19.8272 8.35044 20.3152 8.61466 20.771 8.923C21.2223 9.2284 21.6473 9.57746 22.0336 9.96195C22.419 10.3485 22.7699 10.7713 23.0745 11.2231C23.3836 11.6775 23.6482 12.1652 23.8615 12.6711C24.0799 13.185 24.2465 13.7242 24.3591 14.2726C24.4745 14.8331 24.5332 15.4107 24.5332 15.9882ZM12.8901 9.40605C10.8579 10.3643 9.34119 12.2342 8.86824 14.4878C9.06036 14.4894 12.0972 14.5277 15.5961 13.5994C14.3348 11.3617 12.9872 9.53549 12.8901 9.40605ZM16.1999 14.72C12.4476 15.8417 8.84699 15.761 8.71783 15.756C8.71573 15.8342 8.71199 15.9099 8.71199 15.9882C8.71199 17.8576 9.41827 19.5619 10.5792 20.8506C10.5767 20.8468 12.571 17.3138 16.5036 16.0439C16.5986 16.0123 16.6953 15.984 16.7912 15.9566C16.6083 15.543 16.4086 15.1286 16.1999 14.72ZM20.8122 10.5266C19.5292 9.39689 17.8446 8.71164 15.9995 8.71164C15.4074 8.71164 14.8327 8.78321 14.2823 8.91552C14.3915 9.062 15.7603 10.8753 17.0066 13.1604C19.7563 12.131 20.7943 10.5532 20.8122 10.5266ZM17.2879 17.1624C17.2717 17.1677 17.2554 17.1724 17.2396 17.1782C12.9398 18.675 11.5357 21.6914 11.5205 21.7244C12.7577 22.6851 14.3094 23.2647 15.9995 23.2647C17.0087 23.2647 17.97 23.0595 18.8446 22.688C18.7367 22.0522 18.3134 19.8237 17.2879 17.1624ZM20.0718 22.0231C21.7081 20.9205 22.8702 19.1696 23.1944 17.1415C23.0444 17.0933 21.0055 16.4487 18.6533 16.8253C19.6092 19.4484 19.9976 21.5846 20.0718 22.0231ZM17.5675 14.2448C17.7367 14.5918 17.9005 14.945 18.0517 15.2999C18.1055 15.4273 18.158 15.5521 18.2092 15.6769C20.7127 15.3623 23.179 15.8916 23.2845 15.9132C23.2678 14.1882 22.6498 12.6049 21.6273 11.3654C21.6136 11.3849 20.4448 13.0714 17.5675 14.2448Z" fill="white"/>
</svg>
